# xmcd
#
# Track frame offsets: 
#        150
#        24106
#        50538
#        69166
#        94144
#        113619
#        133812
#        153677
#        179849
#        205038
#        226468
#        250658
#        280596
#
# Disc length: 4143 seconds
#
# Revision: 0
# Processed by: cddbd v1.5.1PL2 Copyright (c) Steve Scherf et al.
# Submitted via: ExactAudioCopy v0.95b2
#
DISCID=ac102d0d
DTITLE=Baby's Gang - Challenger
DYEAR=1900
DGENRE=Disco
TTITLE0=Challenger 
TTITLE1=Jamin
TTITLE2=Happy Birthday (To My Mammy)
TTITLE3=Happy Song (Remix)
TTITLE4=My Little Japanese Boy 
TTITLE5=Step By Step 
TTITLE6=America
TTITLE7=Disco Maniac
TTITLE8=Happy Song
TTITLE9=Let's Dance in the Music
TTITLE10=Ice Cream
TTITLE11=America (Remix)
TTITLE12=Happy Song (Boney M)
EXTD=
EXTT0=
EXTT1=
EXTT2=
EXTT3=
EXTT4=
EXTT5=
EXTT6=
EXTT7=
EXTT8=
EXTT9=
EXTT10=
EXTT11=
EXTT12=
PLAYORDER=
